{"title":"The Unborn Hindi BRRIP by RoYStaR","uid":6689743,"size":434448955,"categoryP":"video","categoryS":"movies","magnet":"?xt=urn:btih:bffa94fea143a147cc1fb373b08eb594755d0c6c&amp;dn=The+Unborn+Hindi+BRRIP+by+RoYStaR&amp;tr=udp%3A%2F%2Ftracker.openbittorrent.com%3A80&amp;tr=udp%3A%2F%2Fopen.demonii.com%3A1337&amp;tr=udp%3A%2F%2Ftracker.coppersurfer.tk%3A6969&amp;tr=udp%3A%2F%2Fexodus.desync.com%3A6969","seeders":0,"leechers":0,"uploader":"royhere","files":12,"time":1316532065,"description":"The Unborn Hindi BRRIP by RoYStaR\n\nGeneral\nUnique ID                        : 114829051752440462846459619952357396483 (0x5663455B60AB049EDFF93C374129D003)\nComplete name                    : D:\\TOORENT FOR UPLOAD\\The Unborn Hindi BRRIP by RoYStaR\\The Unborn Hindi BRRIP by RoYStaR.mkv\nFormat                           : Matroska\nFile size                        : 408 MiB\nDuration                         : 1h 28mn\nOverall bit rate                 : 643 Kbps\n\nVideo\nID                               : 1\nFormat                           : AVC\nFormat/Info                      : Advanced Video Codec\nCodec ID                         : V_MPEG4/ISO/AVC\nDuration                         : 1h 28mn\nBit rate                         : 502 Kbps\nWidth                            : 1 280 pixels\nHeight                           : 528 pixels\nDisplay aspect ratio             : 2.40:1\nFrame rate                       : 23.976 fps\nBits/(Pixel*Frame)               : 0.031\nStream size                      : 319 MiB (78%)\nLanguage                         : English\n\nAudio\nID                               : 2\nFormat                           : MPEG Audio\nFormat version                   : Version 1\nFormat profile                   : Layer 3\nMode                             : Joint stereo\nMode extension                   : MS Stereo\nCodec ID                         : A_MPEG/L3\nCodec ID/Hint                    : MP3\nDuration                         : 1h 27mn\nBit rate mode                    : Constant\nBit rate                         : 128 Kbps\nChannel(s)                       : 2 channels\nSampling rate                    : 44.1 KHz\nCompression mode                 : Lossy\nDelay relative to video          : 2s 0ms\nStream size                      : 80.4 MiB (20%)\nLanguage                         : Hindi\n\nThis is quality upload. . . . . . . \n\nBecause i am upload only quality torrent....\n\n\n\n\nENJOY................ *RoY StaR*\n\nScreenshot:-\n &lt;a href=&quot;\nhttp://img221.imageshack.us/img221/4776/vlcsnap2011092018h37m41j.jpg&quot; rel=&quot;nofollow&quot; target=&quot;_NEW&quot;&gt;\nhttp://img221.imageshack.us/img221/4776/vlcsnap2011092018h37m41j.jpg&lt;/a&gt;\n &lt;a href=&quot;\nhttp://img217.imageshack.us/img217/821/vlcsnap2011092018h37m54.jpg&quot; rel=&quot;nofollow&quot; target=&quot;_NEW&quot;&gt;\nhttp://img217.imageshack.us/img217/821/vlcsnap2011092018h37m54.jpg&lt;/a&gt;\n &lt;a href=&quot;\nhttp://img839.imageshack.us/img839/6425/vlcsnap2011092018h37m56.jpg&quot; rel=&quot;nofollow&quot; target=&quot;_NEW&quot;&gt;\nhttp://img839.imageshack.us/img839/6425/vlcsnap2011092018h37m56.jpg&lt;/a&gt;\n &lt;a href=&quot;\nhttp://img27.imageshack.us/img27/6156/vlcsnap2011092018h38m01.jpg&quot; rel=&quot;nofollow&quot; target=&quot;_NEW&quot;&gt;\nhttp://img27.imageshack.us/img27/6156/vlcsnap2011092018h38m01.jpg&lt;/a&gt;\n &lt;a href=&quot;\nhttp://img829.imageshack.us/img829/5356/vlcsnap2011092018h38m29.jpg&quot; rel=&quot;nofollow&quot; target=&quot;_NEW&quot;&gt;\nhttp://img829.imageshack.us/img829/5356/vlcsnap2011092018h38m29.jpg&lt;/a&gt;\n\n\n","torrent":{"xt":"urn:btih:bffa94fea143a147cc1fb373b08eb594755d0c6c","amp;dn":"The+Unborn+Hindi+BRRIP+by+RoYStaR","amp;tr":["udp%3A%2F%2Ftracker.openbittorrent.com%3A80","udp%3A%2F%2Fopen.demonii.com%3A1337","udp%3A%2F%2Ftracker.coppersurfer.tk%3A6969","udp%3A%2F%2Fexodus.desync.com%3A6969"],"infoHash":"bffa94fea143a147cc1fb373b08eb594755d0c6c","infoHashBuffer":{"type":"Buffer","data":[191,250,148,254,161,67,161,71,204,31,179,115,176,142,181,148,117,93,12,108]},"announce":[],"urlList":[]}}